<svg xmlns="http://www.w3.org/2000/svg" width="50" height="50" viewBox="0 0 32 32"><g transform="translate(-3691.94 -1681.22)"><path fill="#8be1fc" d="m 3722.0957,673.60718 a 12.375,12.375 0 0 1 -12.375,12.375 12.375,12.375 0 0 1 -12.375,-12.375 12.375,12.375 0 0 1 12.375,-12.375 12.375,12.375 0 0 1 12.375,12.375 z" transform="translate(0 1020.362)"/><g fill="#3a3640" transform="matrix(1.00005 0 0 1 3691.782 662.482)"><path style="line-height:normal;text-indent:0;text-align:start;text-decoration-line:none;text-decoration-style:solid;text-decoration-color:#000;text-transform:none;white-space:normal;isolation:auto;mix-blend-mode:normal;solid-color:#000;solid-opacity:1" fill-rule="evenodd" d="m 7.2543054,1022.3633 a 0.50008791,0.50001414 0 0 0 -0.2968975,0.098 l -4.7484077,3.4958 a 0.50008791,0.50001414 0 1 0 0.5937952,0.8047 l 4.6155851,-3.3983 22.0758965,0 a 0.50008791,0.50001414 0 1 0 0,-0.9999 z" color="#000" enable-background="accumulate" font-family="sans-serif" font-weight="400" overflow="visible"/><path style="line-height:normal;text-indent:0;text-align:start;text-decoration-line:none;text-decoration-style:solid;text-decoration-color:#000;text-transform:none;white-space:normal;isolation:auto;mix-blend-mode:normal;solid-color:#000;solid-opacity:1" fill-rule="evenodd" d="M9.4927569 1025.3631a.50008788.50001411 0 00-.492225.5078l0 23.9846a.50008788.50001411 0 101.0000761 0l0-23.9846a.50008788.50001411 0 00-.5078511-.5078zM23.493821 1025.3631a.50008788.50001411 0 00-.492225.5078l0 23.9904a.50008788.50001411 0 00.845767.3633l5.494559-5.2496a.50010509.50003131 0 10-.691459-.7226l-4.648791 4.4391 0-22.8206a.50008788.50001411 0 00-.507851-.5078z" color="#000" enable-background="accumulate" font-family="sans-serif" font-weight="400" overflow="visible"/></g></g></svg>