<svg xmlns="http://www.w3.org/2000/svg" width="50" height="50" viewBox="0 0 32 32"><g transform="translate(1926.246 452.138)"><path fill="#ffb1b1" d="m -1916.5035,-446.13805 0.01,21.00026 c 3e-4,0.5487 0.4448,0.99352 0.9935,0.99353 0.5487,-1e-5 0.9935,-0.44483 0.9935,-0.99353 l 0.01,-21.00026 z"/><path fill="#fb848a" fill-rule="evenodd" d="m -1918.0007,-448.1381 c -0.2082,6e-4 -0.411,0.066 -0.5801,0.1875 l -3.5,2.5 c -0.4491,0.321 -0.5532,0.9453 -0.2324,1.3946 0.321,0.4491 0.9452,0.5531 1.3945,0.2324 l 3.2383,-2.3145 h 18.1804 c 0.5523,0 1,-0.4477 1,-1 0,-0.5523 -0.4477,-1 -1,-1 z" color="#000" font-family="sans-serif" font-weight="400" overflow="visible" style="line-height:normal;font-variant-ligatures:normal;font-variant-position:normal;font-variant-caps:normal;font-variant-numeric:normal;font-variant-alternates:normal;font-variant-east-asian:normal;font-feature-settings:normal;font-variation-settings:normal;text-indent:0;text-align:start;text-decoration-line:none;text-decoration-style:solid;text-decoration-color:#000;text-transform:none;text-orientation:mixed;shape-padding:0;shape-margin:0;inline-size:0;isolation:auto;mix-blend-mode:normal"/><path fill="none" stroke="#586597" stroke-linecap="round" stroke-linejoin="round" stroke-miterlimit="10" d="m -1903.5,-446.1381 0.01,22.0002 5.4948,-5.2485"/><path fill="none" stroke="#586597" stroke-linecap="round" stroke-linejoin="round" d="m -1918.0007,-448.1381 c -0.2082,6e-4 -0.411,0.066 -0.5801,0.1875 l -3.5,2.5 c -0.4491,0.321 -0.5532,0.9453 -0.2324,1.3946 0.321,0.4491 0.9452,0.5531 1.3945,0.2324 l 3.2383,-2.3145 h 18.1804 c 0.5523,0 1,-0.4477 1,-1 0,-0.5523 -0.4477,-1 -1,-1 z" color="#000" font-family="sans-serif" font-weight="400" overflow="visible" style="line-height:normal;font-variant-ligatures:normal;font-variant-position:normal;font-variant-caps:normal;font-variant-numeric:normal;font-variant-alternates:normal;font-variant-east-asian:normal;font-feature-settings:normal;font-variation-settings:normal;text-indent:0;text-align:start;text-decoration-line:none;text-decoration-style:solid;text-decoration-color:#000;text-transform:none;text-orientation:mixed;shape-padding:0;shape-margin:0;inline-size:0;isolation:auto;mix-blend-mode:normal"/><path fill="none" stroke="#586597" stroke-linecap="round" stroke-linejoin="round" d="m -1916.5035,-446.13805 0.01,21.00026 c 3e-4,0.5487 0.4448,0.99352 0.9935,0.99353 0.5487,-1e-5 0.9935,-0.44483 0.9935,-0.99353 l 0.01,-21.00026"/></g></svg>